<?xml version="1.0" encoding="UTF-8"?><svg id="Layer_2" xmlns="http://www.w3.org/2000/svg" viewBox="0 0 512 512"><defs><style>.cls-1{fill:#00abee;}.cls-2{fill:#fff;}.cls-3{fill:gray;}</style></defs><g id="Layer_1-2"><rect class="cls-2" width="512" height="512"/><g><path class="cls-1" d="M392.19,233.94c-13.2-23.2-31.62-41.27-55.21-54.21-11.79-6.44-24.53-11.29-38.23-14.5-13.76-3.24-28.49-4.87-44.19-4.87-22.92,0-44.25,4.11-64.04,12.33-5.2,2.15-10.24,4.54-15.11,7.15-13.66,7.31-25.99,16.4-37.03,27.22-12.18,11.93-22.12,25.42-29.89,40.4h74.82s.01-.02,.02-.02c7.54-10.09,17.37-17.81,29.53-23.2,.41-.2,.85-.37,1.28-.54,11.81-5.02,25.2-7.55,40.14-7.55,13.24,0,25.38,2.28,36.4,6.83,1.2,.48,2.37,1,3.55,1.54,11.94,5.59,21.83,13.37,29.66,23.35,7.85,10,13.03,21.85,15.57,35.55H95.13c-2.77,11.9-4.19,24.33-4.19,37.31,0,2,.02,3.96,.11,5.94,.89,27.79,8.22,52.93,21.94,75.43,14.68,24.09,34.75,43.08,60.21,56.99,25.46,13.9,54.25,20.85,86.37,20.85s59.39-6.72,84.74-20.11c25.38-13.42,45.21-32.07,59.49-55.97l-53.17-27.31c-11.57,15.07-24.44,26.29-38.64,33.64-14.2,7.33-30.4,11-48.6,11-19.2,0-36.21-3.87-50.97-11.59-14.79-7.74-26.29-18.57-34.53-32.47-8.22-13.92-12.33-29.88-12.33-47.88h245c.59-3.72,.91-6.52,1.02-8.37,.11-1.87,.24-4.07,.44-6.61,0-30.36-6.61-57.15-19.83-80.35Z"/><path class="cls-3" d="M285.57,57.61c-10.34-22.16-36.67-31.74-58.84-21.41-19.28,8.99-29,30.08-24.42,50l-67.96,30.92c-8.77-10.85-23.01-15.39-36.29-11.95l-15.58-28.07c7.32-8.32,9.01-20.63,3.16-30.76-7.33-12.71-23.58-17.07-36.3-9.72-12.7,7.34-17.05,23.59-9.72,36.28,5.69,9.88,16.77,14.62,27.39,12.84l15.54,27.99c-11.59,11.02-14.67,28.85-6.31,43.31,1.73,3.02,3.96,5.54,6.35,7.82l-15.58,28.05c-10.61-1.77-21.69,2.97-27.39,12.85-7.33,12.68-2.98,28.94,9.72,36.27,12.71,7.34,28.96,2.98,36.29-9.73,5.86-10.13,4.17-22.43-3.16-30.75l15.53-27.97c8.69,2.26,18.22,1.26,26.61-3.58,13.23-7.64,19.55-22.53,17.07-36.76l67.98-30.92c12.21,16.84,34.97,23.25,54.51,14.13,22.16-10.34,31.74-36.68,21.41-58.85Z"/></g></g></svg>